<mxfile host="app.diagrams.net" modified="2024-04-28T10:03:06.492Z" agent="Mozilla/5.0 (Windows NT 10.0; Win64; x64) AppleWebKit/537.36 (KHTML, like Gecko) Chrome/117.0.0.0 Safari/537.36" version="24.0.4" etag="uMKccFPbwMjrz1bqozVK" type="github">
  <diagram name="第 1 页" id="4U0coXj_NI_16m7YnpEQ">
    <mxGraphModel>
      <root>
        <mxCell id="0" />
        <mxCell id="1" parent="0" />
      </root>
    </mxGraphModel>
  </diagram>
</mxfile>
